<?xml version="1.0" encoding="UTF-8"?>
<svg id="Layer_1" xmlns="http://www.w3.org/2000/svg" version="1.1" viewBox="0 0 924.87 601.72">
  <!-- Generator: Adobe Illustrator 29.2.1, SVG Export Plug-In . SVG Version: 2.1.0 Build 116)  -->
  <defs>
    <style>
      .st0 {
        fill: #fc0;
      }

      .st1 {
        fill: #fff;
      }

      .st2 {
        fill: #55aaa6;
      }

      .st3 {
        fill: #f4649c;
      }
    </style>
  </defs>
  <g>
    <g>
      <path class="st2" d="M149.8,363.1h-60.9l-10.5,29.05c-20.3,56-34.3,66.85-53.9,66.85-14.7,0-24.5-10.85-24.5-26.95,0-12.25,4.9-17.5,4.9-17.5,0,0,3.85,2.8,12.25,2.8,15.4,0,31.85-11.9,49-53.55-15.75,1.75-24.5,8.05-24.5,8.05,0,0-5.6-4.55-5.6-14,0-14,10.5-23.1,28-23.1,4.2,0,8.4.35,12.6,1.05l32.6-98.85c16.1-44.8,37.8-65.45,87.85-65.45,28.35,0,32.55,11.9,28,38.15l-34.7,189.85c-3.5,20.3,3.85,29.05,15.75,29.05,17.15,0,31.85-20.65,36.75-30.45,5.25,0,7.35,3.5,6.65,9.1-3.15,21.35-31.15,51.8-63.35,51.8-24.85,0-42-16.8-42-43.4,0-16.1,1.75-30.1,4.9-48.65l.7-3.85ZM152.95,343.85l25.6-135.95c1.75-10.5,1.75-17.15,1.75-17.15-23.45,0-40.25,21.7-48.65,45.5l-34,102.7c13.3,2.1,29.75,4.55,55.3,4.9Z"/>
      <path class="st2" d="M274.4,201.75c3.85-22.05.35-30.1.35-30.1,0,0,5.25-3.15,18.2-3.15,26.95,0,30.1,10.15,25.9,34.65l-34.3,194.6c-3.5,20.65,2.45,30.8,15.05,30.8,14,0,29.75-11.55,38.85-30.45,4.55,0,7.7,2.8,6.65,9.1-3.5,18.55-30.8,51.8-64.75,51.8-24.15,0-40.95-15.75-40.95-43.75,0-7,.7-19.25,3.15-33.25l31.85-180.25Z"/>
      <path class="st2" d="M527.65,281l5.95-34.3c10.15-59.15,37.45-81.2,77.35-81.2,31.5,0,47.25,18.55,47.25,39.55s-12.6,36.4-30.8,36.4c-12.6,0-17.15-8.4-17.15-8.4,0,0,14.35-14.35,14.35-34.65,0-10.85-5.6-15.4-13.65-15.4-10.85,0-23.8,11.55-30.1,49l-8.4,49h35s2.45,2.8,2.45,7.35c0,5.95-4.2,10.15-11.9,10.15h-28.7l-19.5,101.4c-8.05,45.85-27.65,61.6-57.4,61.6-18.2,0-28.35-8.75-28.35-19.95,0-7.35,2.8-9.8,2.8-9.8,0,0,4.55,4.55,12.25,4.55,12.95,0,21.7-8.75,26.6-36.75l18.8-101.05h-22.4s-2.45-2.8-2.45-7.35c0-5.95,4.2-10.15,11.9-10.15h16.1Z"/>
      <path class="st2" d="M682.2,200.75c3.85-22.05.35-30.1.35-30.1,0,0,5.25-3.15,18.2-3.15,26.95,0,30.1,10.15,25.9,34.65l-34.3,194.6c-3.5,20.65,2.45,30.8,15.05,30.8,14,0,29.75-11.55,38.85-30.45,4.55,0,7.7,2.8,6.65,9.1-3.5,18.55-30.8,51.8-64.75,51.8-24.15,0-40.95-15.75-40.95-43.75,0-7,.7-19.25,3.15-33.25l31.85-180.25Z"/>
      <path class="st2" d="M860,335.85c2.8-16.8-.7-22.05-8.4-22.05-22.05,0-55.65,52.15-66.15,110.95-3.85,22.05-.35,30.1-.35,30.1,0,0-5.25,3.15-18.2,3.15-26.95,0-30.1-10.15-25.9-34.65l38.85-222.6c3.85-22.05.35-30.1.35-30.1,0,0,5.25-3.15,18.2-3.15,26.95,0,30.1,10.15,25.9,34.65l-23.1,131.6c6.65-10.85,13.65-19.6,21-26.95,16.45-16.45,33.6-23.8,47.6-23.8,22.05,0,36.05,14.35,36.05,36.05,0,6.3-.7,14.7-3.15,28l-8.4,47.95c-4.2,24.85,1.4,32.55,10.5,32.55,10.15,0,13.3-9.8,13.3-9.8,4.9,0,7.35,3.85,6.65,10.15-1.4,14-17.85,30.1-40.6,30.1-18.2,0-35.35-14.35-35.35-41.3,0-10.15.7-21.7,3.15-35.7l8.05-45.15Z"/>
    </g>
    <g>
      <g>
        <polygon class="st0" points="475.06 128.99 478.13 138.48 461.54 156.44 438.19 168.95 421.68 174.57 402.95 178.4 391.89 179.59 383.04 180.02 375.72 179.61 377.81 172.79 394.42 166.61 439.19 155.46 471.02 133.42 475.06 128.99"/>
        <polygon class="st1" points="468.61 107.25 472.55 119.55 465.7 133.45 440.49 149.79 409.98 161.02 387.64 164.28 383.25 163.08 387.65 153.7 468.61 107.25"/>
        <path class="st0" d="M458.4,73.02l3.14,10.76s-20.11,31.33-55.64,36.49l6.24-10.98,46.27-36.28Z"/>
        <path class="st1" d="M453.47,56.73l2.44,8.21s-3.62,21.58-38.67,34.03l8.79-15.13,27.44-27.12Z"/>
        <path class="st3" d="M475.3,129.88c-8.44,9.93-19.28,18.98-30.62,25.47-20.27,11.6-43.93,15.36-66.87,17.44l5.49-9.81c20.16-2.65,41.57-7.11,59.27-17.5,11.41-6.7,21.02-16.47,29.94-26.07l2.79,10.46Z"/>
        <path class="st3" d="M478.69,29.17c5,2.92,8.85,7.24,12.26,11.86,9.61,12.99,9.2,26.85,28.26,30.07,3.2.54,10.82-.73,11.52,2.79,1.14,5.78-11.63,3.59-14.8,2.88-9.26-2.05-17.06-7.84-21.45-16.26-5.24-10.05-9.74-22.5-21.5-26.82-2.7-.99-7.71-.63-6.98-4.67.49-2.68,8.26-5.63,10.75-6.11,8.12-1.56,12.72,3.29,19.41,6.27,11.15,4.96,26.59,7.35,37.98,2.27,2.32-1.03,5.66-4.61,8.08-2.22,3.04,3.01-1.72,6.02-4.21,7.34-14.3,7.56-33.64,3.12-47.52-3.27-3.78-1.74-7.16-5.2-11.8-4.13Z"/>
        <path class="st3" d="M412.01,109.47c2.3-3.16,4.23-10.19,6.85-12.7,1.96-1.88,7.51-4.51,10.21-6.43,10.1-7.15,18.84-16.03,26.83-25.4l3.18,10.27c-12.31,15.31-28.6,27.31-47.07,34.26Z"/>
        <path class="st3" d="M471.39,15.48l-10.56,6.43c-.63.49-1.55,1.56-1.74,2.29-.25.97.6,5.69.88,7.09.44,2.21,1.26,4.37,1.74,6.57-3.03-.93-8.49-8.62-11.16-8.78-3.99-.25-9.52,5.24-13.42,6.47.77-2.97,5.93-11.12,5.25-13.64-.82-3.03-8.21-7.11-10.02-10.09.55-.77,12.5,1.88,14.42.77,2.04-1.19,4.31-10.5,6.4-12.58.62,2.53,1.42,5.03,2.04,7.56.53,2.15-.3,4.25,1.85,5.99,2.17,1.76,11.22,1.35,14.31,1.94Z"/>
        <path class="st2" d="M449.2,41.72l4.27,15.01c-7.82,10.24-16.93,19.6-27.44,27.12l23.17-42.13Z"/>
        <path class="st2" d="M461.45,83.48l-15.19,14.04c-9.9,8.44-21.65,13.98-33.66,18.78-1.93.77-4.29.67-5.83,2.38l-19.12,35.02-.83,1.76.49-.1c21.69-3.38,42.93-8.77,60.6-22.31,3.47-2.66,21.63-19.1,21.71-22.4l-8.18-27.16Z"/>
        <path class="st2" d="M489.76,177.36l-6.36-20.99h0l-5.48-18.59c-11.23,10.91-23.49,21.07-37.87,27.65-19.86,9.08-42.59,13.09-64.33,14.18,8.54,1.07,18.18,2.68,28.37,2.92h13.54c15.24,0,32.06-.5,46.42-2.28h0s25.71-2.89,25.71-2.89Z"/>
      </g>
      <path class="st0" d="M525.57,226.34c-2-7.44-17.72-21.64-20.22-30.68-1-2.13-2.5-3.19-5-3.19h-1l-46.28,50.88c-14,14.89-27.5,31.9-40,49.44-38,53.7-68,113.77-73.5,137.17l-8.89-1.51c0,11.7,27.39,30.22,37.89,30.22h.5c3.5,0,6-1.59,6.5-5.32,9-45.72,33-85.6,58-123.34,31.5-47.32,67-88.25,83-95.7,2,0,4.5-.53,6-1.06,2-1.06,3.5-3.19,3.5-5.32l-.5-1.59Z"/>
      <path class="st2" d="M358.57,451.23c-10.5,0-29.5-14.35-29.5-26.05l.5-2.66c5.5-23.39,35.5-83.47,73.5-137.17,12.5-17.54,26-34.56,40-49.44l-23.5,1.06c-13,0-25.5-1.06-37.5-2.66-14.5-2.13-27-27.11-28.5-40.94v-.53c0-3.19,2.5-5.32,5-5.32,1,0,2,0,3,1.06,7.5,6.38,26,9.04,47.5,9.57h11c30,0,63.5-3.72,78.5-6.38h1c2.5,0,4,1.06,5,3.19,2.5,9.04,9,16.48,11,23.92l.5,1.59c0,2.13-1.5,4.25-3.5,5.32-1.5.53-4,1.06-6,1.06-16,7.44-51.5,48.38-83,95.7-25,37.75-49,77.62-58,123.34-.5,3.72-3,5.32-6.5,5.32h-.5Z"/>
    </g>
  </g>
  <g>
    <path class="st2" d="M333.66,516.98c4.65,0,8.25-3.6,8.25-8.1s-3.6-8.1-8.25-8.1-8.25,3.6-8.25,8.1,3.6,8.1,8.25,8.1Z"/>
    <path class="st2" d="M311.91,516.98c4.65,0,8.1-3.6,8.1-8.1s-3.45-8.1-8.1-8.1-8.25,3.6-8.25,8.1,3.6,8.1,8.25,8.1Z"/>
    <path class="st2" d="M439.71,530.48c4.65,0,8.1-3.6,8.1-8.1s-3.45-8.1-8.1-8.1-8.25,3.6-8.25,8.1,3.6,8.1,8.25,8.1Z"/>
    <path class="st2" d="M613.26,499.73h-12.6c-1.35,0-2.1.75-2.1,2.1v68.7c0,10.5-4.35,16.2-15.75,16.2h-1.2s0,0,0,0,0,0,0,0h-6.6c-5.85,0-9.75-1.5-12-4.35l7.35-3.9c1.35-.75,2.55-1.8,2.55-3.3v-9.75c0-1.65-1.05-3-2.25-3.9-14.7-10.8-32.55-22.5-58.8-22.5-19.95,0-30,6.6-30,21.75v1.95c0,1.35.9,2.25,2.25,2.25h12.45c1.35,0,2.25-.9,2.25-2.25,0-7.05,5.25-9,13.95-9,15,0,26.85,6,43.2,14.55-18.45,11.85-40.2,18.45-76.05,18.45h-4.05s0,0,0,0,0,0,0,0h-10.65c-2.4,0-4.8-.15-7.05-.3,7.2-6.6,12-14.7,12-24,0-13.35-9.6-27-30.45-27s-30.45,13.65-30.45,27c0,9.3,4.8,17.4,12,24-2.25.15-4.65.3-7.05.3h-11.4s0,0,0,0,0,0,0,0c-8.4,0-13.5-5.7-13.5-16.2v-68.85c0-1.35-.75-2.1-2.1-2.1h-12.6c-1.35,0-2.1.75-2.1,2.1v68.85c0,10.5-5.85,16.2-17.25,16.2h-2.7s0,0,0,0,0,0,0,0c-10.35,0-14.7-5.7-14.7-16.2v-40.2c0-1.35-.75-2.1-2.1-2.1h-14.7c-35.1,0-46.35,20.85-46.35,36.9,0,13.65,7.95,25.95,25.5,25.95,9.9,0,17.1-3.9,21.75-10.8,2.85,14.1,12.45,21.45,27.3,21.45h3.3s0,0,0,0,0,0,0,0h5.55c10.65,0,18-2.55,22.8-12,4.8,9.45,12.6,12,21.9,12,0,0,0,0,0,0s0,0,0,0h14.7c7.2,0,15-1.5,22.2-4.35,7.2,2.85,15,4.35,22.2,4.35h13.95s0,0,0,0,0,0,0,0h6.9c25.65,0,44.7-3.45,65.85-12.6,4.5,8.1,13.8,12.6,25.65,12.6h7.35s0,0,0,0,0,0,0,0h5.55c18,0,28.2-10.65,28.2-31.2v-68.7c0-1.35-.75-2.1-2.1-2.1ZM321.06,560.92c0,8.7-6,15.3-15.9,15.3s-13.5-6.45-13.5-12.9c0-10.05,9.3-20.25,29.4-20.25v17.85ZM439.71,581.17c-8.1-4.2-12.9-10.5-12.9-17.4,0-6.3,3.9-13.35,12.9-13.35s12.9,7.05,12.9,13.35c0,6.9-4.8,13.2-12.9,17.4Z"/>
    <path class="st2" d="M648.06,499.73h-12.45c-1.35,0-2.25.9-2.25,2.25v97.5c0,1.35.9,2.25,2.25,2.25h12.45c1.35,0,2.1-.9,2.1-2.25v-97.5c0-1.35-.75-2.25-2.1-2.25Z"/>
  </g>
</svg>