<?xml version="1.0" encoding="UTF-8"?>
<svg id="Layer_1" xmlns="http://www.w3.org/2000/svg" version="1.1" viewBox="0 0 924.87 601.72">
  <!-- Generator: Adobe Illustrator 29.2.1, SVG Export Plug-In . SVG Version: 2.1.0 Build 116)  -->
  <defs>
    <style>
      .st0 {
        fill: #fc0;
      }

      .st1 {
        fill: #fff;
      }

      .st2 {
        fill: #55aaa6;
      }

      .st3 {
        fill: #f4649c;
      }
    </style>
  </defs>
  <g id="Group_15092">
    <path id="Path_13023" class="st1" d="M149.87,363.03h-60.9l-10.5,29.05c-20.33,55.99-34.3,66.84-53.9,66.84-14.7,0-24.5-10.85-24.5-26.95-.49-6.23,1.25-12.43,4.9-17.5,3.72,2.11,7.98,3.08,12.25,2.8,15.38,0,31.86-11.9,49-53.54-8.69.71-17.08,3.47-24.5,8.05-3.78-3.65-5.81-8.75-5.6-14,0-14,10.5-23.07,28.02-23.07,4.22,0,8.43.35,12.6,1.05l32.6-98.84c16.1-44.8,37.8-65.44,87.84-65.44,28.35,0,32.55,11.9,28.02,38.15l-34.74,189.81c-3.5,20.3,3.85,29.05,15.75,29.05,17.15,0,31.86-20.65,36.75-30.44,5.25,0,7.35,3.5,6.65,9.1-3.15,21.35-31.15,51.79-63.35,51.79-24.85,0-42-16.8-42-43.4.19-16.33,1.83-32.61,4.9-48.64l.7-3.86ZM153.01,343.8l25.6-135.94c1.01-5.67,1.6-11.42,1.75-17.18-23.45,0-40.25,21.7-48.64,45.5l-33.99,102.69c18.28,3.07,36.77,4.71,55.3,4.9"/>
    <path id="Path_13024" class="st1" d="M274.45,201.69c3.85-22.05.35-30.1.35-30.1,5.72-2.51,11.97-3.6,18.2-3.15,26.95,0,30.1,10.15,25.9,34.65l-34.3,194.58c-3.5,20.65,2.45,30.8,15.05,30.8,14,0,29.75-11.54,38.84-30.44,4.55,0,7.69,2.8,6.65,9.1-3.5,18.55-30.8,51.79-64.75,51.79-24.17,0-40.94-15.75-40.94-43.74.14-11.15,1.19-22.27,3.15-33.25l31.85-180.23Z"/>
    <path id="Path_13025" class="st1" d="M527.67,280.94l5.95-34.3c10.15-59.14,37.44-81.19,77.34-81.19,31.5,0,47.24,18.55,47.24,39.55s-12.6,36.39-30.8,36.39c-6.8.46-13.34-2.74-17.15-8.4,8.78-9.45,13.88-21.75,14.35-34.65,0-10.85-5.6-15.38-13.65-15.38-10.85,0-23.8,11.54-30.1,49l-8.4,49h34.99c1.62,2.11,2.48,4.69,2.45,7.35,0,5.95-4.2,10.15-11.9,10.15h-28.7l-19.5,101.39c-8.05,45.85-27.65,61.59-57.4,61.59-18.2,0-28.35-8.75-28.35-19.95-.42-3.51.59-7.04,2.8-9.8,3.38,2.97,7.75,4.59,12.25,4.55,12.95,0,21.7-8.75,26.6-36.75l18.8-101.04h-22.4c-1.62-2.11-2.48-4.69-2.45-7.35,0-5.95,4.2-10.15,11.9-10.15l16.09-.02Z"/>
    <path id="Path_13026" class="st1" d="M682.2,200.69c3.85-22.05.35-30.1.35-30.1,5.72-2.51,11.97-3.6,18.2-3.15,26.95,0,30.1,10.15,25.9,34.65l-34.3,194.58c-3.5,20.65,2.45,30.8,15.05,30.8,14,0,29.75-11.54,38.84-30.44,4.55,0,7.69,2.8,6.65,9.1-3.5,18.55-30.8,51.79-64.75,51.79-24.17,0-40.94-15.75-40.94-43.74.14-11.15,1.19-22.27,3.15-33.25l31.85-180.23Z"/>
    <path id="Path_13027" class="st1" d="M859.98,335.78c2.8-16.8-.7-22.05-8.4-22.05-22.05,0-55.64,52.14-66.15,110.94-3.85,22.05-.35,30.1-.35,30.1-5.72,2.52-11.97,3.6-18.2,3.15-26.95,0-30.1-10.15-25.9-34.65l38.84-222.58c3.85-22.05.35-30.1.35-30.1,5.72-2.52,11.97-3.6,18.2-3.15,26.95,0,30.1,10.15,25.9,34.65l-23.07,131.59c5.91-9.78,12.95-18.83,21-26.95,16.45-16.45,33.6-23.8,47.6-23.8,18.62-1.29,34.76,12.77,36.05,31.39.11,1.55.11,3.1,0,4.65-.19,9.42-1.25,18.79-3.15,28.02l-8.4,47.95c-4.2,24.85,1.4,32.55,10.5,32.55,6.04-.17,11.35-4.08,13.3-9.8,4.9,0,7.35,3.85,6.65,10.15-1.4,14-17.85,30.1-40.6,30.1-18.2,0-35.35-14.35-35.35-41.29,0-11.97,1.05-23.92,3.15-35.71l8.03-45.17Z"/>
    <path id="Path_13028" class="st0" d="M475.08,128.94l3.07,9.49-16.58,17.96-23.35,12.51-16.51,5.61-18.72,3.85-11.06,1.19-8.85.43-7.32-.41,2.09-6.81,16.61-6.18,44.76-11.16,31.82-22.03,4.05-4.45Z"/>
    <path id="Path_13029" class="st2" d="M468.63,107.21l3.94,12.29-6.84,13.9-25.21,16.37-30.51,11.23-22.34,3.25-4.39-1.2,4.39-9.38,80.96-46.46Z"/>
    <path id="Path_13030" class="st0" d="M458.43,72.98l3.14,10.76s-20.1,31.31-55.64,36.49l6.24-10.99,46.26-36.26Z"/>
    <path id="Path_13031" class="st2" d="M453.49,56.69l2.44,8.21s-3.62,21.58-38.66,34.03l8.79-15.13,27.43-27.11Z"/>
    <path id="Path_13032" class="st3" d="M475.33,129.83c-8.69,10.16-19.05,18.77-30.62,25.47-20.27,11.6-43.95,15.38-66.86,17.44l5.49-9.81c20.71-1.88,40.85-7.82,59.26-17.49,11.18-7.2,21.27-15.98,29.94-26.07l2.79,10.46Z"/>
    <path id="Path_13033" class="st1" d="M478.72,29.14c4.85,3.08,9.02,7.11,12.26,11.85,9.61,12.99,9.2,26.85,28.26,30.07,3.2.55,10.82-.73,11.54,2.79,1.14,5.78-11.63,3.59-14.8,2.88-9.21-1.96-17.06-7.92-21.42-16.26-5.24-10.05-9.73-22.52-21.5-26.82-2.7-.99-7.69-.63-6.98-4.66.49-2.68,8.24-5.63,10.75-6.11,8.11-1.55,12.72,3.3,19.41,6.27,11.15,4.94,26.59,7.34,37.98,2.27,2.32-1.03,5.66-4.6,8.08-2.2,3.04,3.01-1.71,6.02-4.21,7.33-14.28,7.56-33.64,3.12-47.52-3.26-3.78-1.74-7.14-5.2-11.8-4.13"/>
    <path id="Path_13034" class="st3" d="M412.05,109.43c2.02-4.37,4.31-8.61,6.85-12.7,1.96-1.87,7.5-4.51,10.21-6.43,9.96-7.32,18.97-15.86,26.82-25.4l3.18,10.27c-12.35,15.42-28.6,27.24-47.07,34.25"/>
    <path id="Path_13035" class="st1" d="M471.42,15.45l-10.56,6.43c-.77.6-1.36,1.39-1.74,2.29.06,2.39.35,4.76.88,7.09.44,2.2,1.26,4.36,1.74,6.59-3.03-.93-8.49-8.61-11.16-8.79-3.99-.25-9.52,5.24-13.43,6.47.76-2.97,5.93-11.12,5.25-13.64-.81-3.03-8.21-7.11-10.01-10.09.55-.77,12.5,1.88,14.42.77,2.04-1.19,4.31-10.5,6.4-12.57.62,2.53,1.42,5.03,2.04,7.55.55,2.15-.3,4.25,1.85,5.99s11.22,1.35,14.31,1.93"/>
    <path id="Path_13036" class="st1" d="M449.23,41.69l4.27,15.01c-7.75,10.35-16.99,19.49-27.43,27.11l23.17-42.12Z"/>
    <path id="Path_13037" class="st1" d="M461.48,83.44l-15.18,14.04c-10.12,8.05-21.49,14.4-33.65,18.78-1.93.77-4.28.66-5.83,2.38l-19.12,35.02-.82,1.76.49-.1c21.69-3.38,42.93-8.79,60.59-22.3,3.47-2.66,21.63-19.1,21.71-22.4l-8.17-27.17Z"/>
    <path id="Path_13038" class="st1" d="M489.78,177.3l-6.36-20.99-5.49-18.58c-10.95,11.31-23.76,20.66-37.87,27.65-20.37,8.69-42.19,13.5-64.32,14.17,9.4,1.47,18.87,2.44,28.37,2.92h13.54c15.5.15,31-.61,46.42-2.28h0l25.72-2.89Z"/>
    <path id="Path_13039" class="st0" d="M525.6,226.28c-2-7.44-17.72-21.63-20.22-30.67-.79-2.05-2.81-3.34-5-3.19h-1l-46.28,50.88c-14.42,15.57-27.78,32.09-40,49.44-38,53.69-67.99,113.76-73.49,137.15l-8.89-1.51c0,11.7,27.38,30.21,37.9,30.21h.5c3.19.39,6.08-1.88,6.47-5.06.01-.08.02-.17.03-.25,9-45.72,32.99-85.59,57.99-123.33,31.49-47.31,66.99-88.24,82.99-95.69,2.04-.05,4.06-.41,6-1.07,2.03-1.03,3.36-3.05,3.5-5.32l-.52-1.59Z"/>
    <path id="Path_13040" class="st1" d="M358.61,451.15c-10.5,0-29.49-14.35-29.49-26.05l.5-2.66c5.49-23.39,35.49-83.46,73.49-137.15,12.21-17.35,25.58-33.87,40-49.44l-23.5,1.06c-12.54-.06-25.07-.94-37.5-2.66-14.5-2.13-26.99-27.11-28.49-40.93v-.55c-.08-2.85,2.15-5.23,5-5.32,1.11-.14,2.22.25,3,1.06,7.5,6.38,26,9.04,47.5,9.57h10.99c26.29-.16,52.52-2.29,78.49-6.38h1c2.19-.15,4.21,1.15,5,3.19,2.5,9.04,9,16.48,10.99,23.92l.5,1.59c-.14,2.27-1.47,4.29-3.5,5.32-1.93.65-3.96,1.01-6,1.06-16,7.44-51.5,48.38-82.99,95.69-25,37.75-49,77.61-57.99,123.33-.25,3.2-3.05,5.59-6.25,5.34-.08,0-.17-.02-.25-.03l-.48.03Z"/>
    <path id="Path_13041" class="st1" d="M333.7,516.89c4.47-.08,8.04-3.76,7.96-8.24-.08-4.47-3.76-8.04-8.24-7.96-4.42.07-7.97,3.68-7.97,8.11,0,4.48,3.63,8.1,8.11,8.1.04,0,.09,0,.13,0"/>
    <path id="Path_13042" class="st1" d="M311.96,516.89c4.47,0,8.1-3.63,8.1-8.1s-3.63-8.1-8.1-8.1c-4.47-.12-8.19,3.42-8.31,7.89-.12,4.47,3.42,8.19,7.89,8.31.14,0,.28,0,.42,0"/>
    <path id="Path_13043" class="st1" d="M439.74,530.38c4.47,0,8.09-3.63,8.09-8.11,0-4.47-3.62-8.08-8.09-8.09-4.47,0-8.1,3.62-8.11,8.09s3.62,8.1,8.09,8.11h.02"/>
    <path id="Path_13044" class="st1" d="M613.27,499.62h-12.6c-1.04-.12-1.98.63-2.1,1.67-.02.14-.02.29,0,.43v68.67c0,10.5-4.35,16.2-15.75,16.2h-7.81c-4.46.5-8.9-1.11-12-4.35l7.35-3.9c1.39-.55,2.37-1.81,2.55-3.3v-9.75c-.1-1.58-.93-3.03-2.25-3.9-14.69-10.8-32.54-22.52-58.78-22.52-19.95,0-29.99,6.59-29.99,21.75v1.95c-.07,1.17.82,2.18,1.99,2.25.09,0,.17,0,.26,0h12.45c1.17.07,2.18-.82,2.25-1.99,0-.09,0-.17,0-.26,0-7.05,5.25-9,13.95-9,15,0,26.85,6,43.2,14.55-18.45,11.84-40.2,18.45-76.04,18.45h-14.7c-2.4,0-4.8-.15-7.05-.3,7.24-5.92,11.6-14.65,12-24,0-13.35-9.6-26.99-30.44-26.99s-30.44,13.65-30.44,26.99c.4,9.34,4.76,18.07,12,24-2.25.15-4.65.3-7.05.3h-11.4c-8.4,0-13.5-5.7-13.5-16.2v-68.77c.12-1.04-.63-1.98-1.67-2.1-.14-.02-.29-.02-.43,0h-12.6c-1.04-.12-1.98.63-2.1,1.67-.02.14-.02.29,0,.43v68.84c0,10.5-5.85,16.2-17.25,16.2h-2.7c-10.35,0-14.7-5.7-14.7-16.2v-40.2c.12-1.04-.63-1.98-1.67-2.1-.14-.02-.29-.02-.43,0h-14.69c-35.09,0-46.34,20.85-46.34,36.89-1.06,13.26,8.83,24.86,22.09,25.92,1.13.09,2.27.1,3.41.03,8.64.47,16.9-3.63,21.75-10.8,2.85,14.1,12.45,21.42,27.3,21.42h8.85c10.65,0,18-2.55,22.8-12,4.07,8.19,12.81,12.98,21.9,12h14.67c7.61-.06,15.13-1.54,22.2-4.35,7.07,2.81,14.59,4.29,22.19,4.35h20.88c22.6.68,45.08-3.62,65.84-12.6,5.56,8.62,15.42,13.46,25.64,12.6h12.9c18,0,28.2-10.65,28.2-31.2v-68.67c.12-1.04-.64-1.98-1.68-2.1-.14-.02-.28-.02-.42,0M321.12,560.82c.28,8.19-6.13,15.05-14.32,15.33-.53.02-1.05,0-1.58-.03-6.69.74-12.71-4.08-13.45-10.76-.08-.71-.1-1.43-.05-2.14,0-10.05,9.3-20.25,29.4-20.25v17.85ZM439.78,581.07c-7.24-2.9-12.23-9.63-12.9-17.4,0-7.13,5.78-12.91,12.91-12.91s12.91,5.78,12.91,12.91c-.67,7.77-5.66,14.5-12.9,17.4"/>
    <path id="Path_13045" class="st1" d="M648.06,499.64h-12.45c-1.17-.07-2.18.82-2.25,1.99,0,.09,0,.17,0,.26v97.49c-.07,1.17.82,2.18,1.99,2.25.09,0,.17,0,.26,0h12.45c1.11.06,2.05-.8,2.11-1.91,0-.12,0-.23-.01-.35v-97.49c.14-1.1-.65-2.11-1.75-2.24-.12-.01-.23-.02-.35-.01"/>
  </g>
</svg>